<?xml version="1.0" standalone="no"?>
<!DOCTYPE svg PUBLIC "-//W3C//DTD SVG 20010904//EN"
 "http://www.w3.org/TR/2001/REC-SVG-20010904/DTD/svg10.dtd">
<svg version="1.0" xmlns="http://www.w3.org/2000/svg"
 width="594.000000pt" height="594.000000pt" viewBox="0 0 594.000000 594.000000"
 preserveAspectRatio="xMidYMid meet">
<metadata>
Created by potrace 1.14, written by Peter Selinger 2001-2017
</metadata>
<g transform="translate(0.000000,594.000000) scale(0.100000,-0.100000)"
fill="#000000" stroke="none">
<path d="M2885 5876 c-60 -34 -161 -93 -224 -129 -62 -37 -115 -67 -117 -67
-2 0 -45 -24 -96 -53 -80 -47 -147 -83 -363 -202 -105 -58 -391 -213 -507
-274 l-66 -35 0 -2310 c0 -2182 1 -2312 17 -2366 44 -140 218 -322 392 -410
l56 -29 44 26 c24 13 67 37 94 53 28 15 183 102 345 194 l295 166 2 86 c1 72
-1 86 -15 90 -9 3 -45 18 -78 35 -102 50 -153 118 -195 260 l-22 74 -2 1865
c-2 1543 0 1881 11 1960 35 239 136 432 325 619 70 70 229 196 302 240 20 12
36 26 34 29 -69 141 -120 242 -121 242 0 0 -50 -29 -111 -64z"/>
<path d="M3280 4385 c-41 -13 -97 -33 -125 -45 -113 -49 -345 -157 -410 -191
l-70 -36 0 -222 c0 -168 3 -225 12 -233 7 -6 13 -8 13 -6 0 4 92 -12 145 -25
29 -7 107 -61 129 -90 69 -90 121 -246 141 -422 3 -27 8 -70 11 -95 3 -25 7
-605 8 -1290 1 -685 6 -1260 10 -1278 31 -130 222 -334 397 -422 l56 -29 94
53 c80 44 259 144 404 226 54 30 191 107 273 152 l67 37 3 88 3 88 -62 18
c-143 42 -252 150 -289 287 -7 25 -15 54 -18 65 -3 11 -6 566 -7 1234 -2 668
-6 1249 -9 1290 -31 348 -289 742 -549 839 -82 31 -141 33 -227 7z"/>
</g>
</svg>
